<svg width="21" height="21" viewBox="0 0 21 21" fill="none" xmlns="http://www.w3.org/2000/svg">
<path d="M14.6278 5.23122H18.7945V6.89789H17.1278V17.7312C17.1278 17.9522 17.04 18.1642 16.8837 18.3205C16.7275 18.4768 16.5155 18.5646 16.2945 18.5646H4.62781C4.40679 18.5646 4.19483 18.4768 4.03855 18.3205C3.88227 18.1642 3.79447 17.9522 3.79447 17.7312V6.89789H2.12781V5.23122H6.29447V2.73122C6.29447 2.51021 6.38227 2.29825 6.53855 2.14197C6.69483 1.98569 6.90679 1.89789 7.12781 1.89789H13.7945C14.0155 1.89789 14.2275 1.98569 14.3837 2.14197C14.54 2.29825 14.6278 2.51021 14.6278 2.73122V5.23122ZM7.96114 9.39789V14.3979H9.62781V9.39789H7.96114ZM11.2945 9.39789V14.3979H12.9611V9.39789H11.2945ZM7.96114 3.56455V5.23122H12.9611V3.56455H7.96114Z" fill="black"/>
</svg>
