<svg width="19" height="19" viewBox="0 0 19 19" fill="none" xmlns="http://www.w3.org/2000/svg">
<g id="Group">
<path id="Vector" d="M9.5 2.375C8.84687 2.375 8.3125 2.90938 8.3125 3.5625C8.3125 4.21563 8.84687 4.75 9.5 4.75C10.1531 4.75 10.6875 4.21563 10.6875 3.5625C10.6875 2.90938 10.1531 2.375 9.5 2.375ZM9.5 14.25C8.84687 14.25 8.3125 14.7844 8.3125 15.4375C8.3125 16.0906 8.84687 16.625 9.5 16.625C10.1531 16.625 10.6875 16.0906 10.6875 15.4375C10.6875 14.7844 10.1531 14.25 9.5 14.25ZM9.5 8.3125C8.84687 8.3125 8.3125 8.84688 8.3125 9.5C8.3125 10.1531 8.84687 10.6875 9.5 10.6875C10.1531 10.6875 10.6875 10.1531 10.6875 9.5C10.6875 8.84688 10.1531 8.3125 9.5 8.3125Z" fill="black"/>
</g>
</svg>
