<svg width="44" height="61" viewBox="0 0 44 61" fill="none" xmlns="http://www.w3.org/2000/svg">
<rect x="1.32056" y="1.45295" width="41.0674" height="58.4112" rx="4.42509" fill="#FFCF55" stroke="black" stroke-width="1.77003"/>
<path d="M33.7626 33.0571C35.3146 26.4002 31.242 19.73 24.6662 18.1588C18.0904 16.5876 11.5014 20.7104 9.94937 27.3674C8.39734 34.0243 12.4699 40.6945 19.0458 42.2657C25.6216 43.8369 32.2105 39.7141 33.7626 33.0571Z" stroke="black" stroke-width="1.32753" stroke-linecap="round" stroke-linejoin="round"/>
<path d="M15.2605 28.1168C15.2605 27.9002 15.324 27.6885 15.4428 27.5085C15.5617 27.3285 15.7307 27.1882 15.9284 27.1054C16.126 27.0227 16.3435 27.0011 16.5533 27.0435C16.7631 27.0859 16.9557 27.1904 17.1068 27.3436C17.2579 27.4969 17.3607 27.6921 17.4022 27.9046C17.4437 28.117 17.422 28.3371 17.3398 28.5371C17.2577 28.737 17.1188 28.9078 16.9407 29.0278C16.7627 29.1478 16.5534 29.2116 16.3395 29.2112C16.1976 29.2112 16.0572 29.1829 15.9261 29.1279C15.7951 29.0728 15.676 28.9922 15.5758 28.8905C15.4756 28.7889 15.3961 28.6682 15.342 28.5354C15.2879 28.4027 15.2602 28.2604 15.2605 28.1168Z" fill="black"/>
<path d="M26.2859 28.1168C26.2859 27.9003 26.3493 27.6887 26.4681 27.5087C26.5869 27.3288 26.7557 27.1885 26.9533 27.1056C27.1508 27.0228 27.3682 27.0011 27.5779 27.0434C27.7876 27.0856 27.9802 27.1898 28.1314 27.3429C28.2826 27.496 28.3856 27.691 28.4273 27.9033C28.469 28.1156 28.4476 28.3356 28.3658 28.5356C28.284 28.7356 28.1454 28.9065 27.9676 29.0268C27.7898 29.147 27.5808 29.2112 27.367 29.2112C27.0803 29.2112 26.8053 29.0959 26.6025 28.8907C26.3998 28.6854 26.2859 28.407 26.2859 28.1168Z" fill="black"/>
<path d="M15.9292 36.0668C16.4299 34.8969 17.2575 33.9008 18.3103 33.201C19.3631 32.5013 20.595 32.1285 21.8544 32.1285C23.1138 32.1285 24.3458 32.5013 25.3985 33.201C26.4513 33.9008 27.279 34.8969 27.7797 36.0668" stroke="black" stroke-width="1.32753" stroke-linecap="round" stroke-linejoin="round"/>
<path d="M15.4272 24.3654L18.256 26.1009" stroke="black" stroke-width="1.32753" stroke-linecap="round" stroke-linejoin="round"/>
<path d="M28.2837 24.3654L25.4529 26.1009" stroke="black" stroke-width="1.32753" stroke-linecap="round" stroke-linejoin="round"/>
</svg>
