<svg width="43" height="61" viewBox="0 0 43 61" fill="none" xmlns="http://www.w3.org/2000/svg">
<rect x="1.07215" y="1.45295" width="40.1932" height="58.4112" rx="4.42509" fill="#29E259" stroke="black" stroke-width="1.77003"/>
<path d="M15.012 27.3344C15.012 27.1179 15.0754 26.9062 15.1943 26.7262C15.3132 26.5461 15.4822 26.4059 15.6798 26.3231C15.8775 26.2403 16.095 26.2188 16.3047 26.2612C16.5145 26.3036 16.7071 26.408 16.8583 26.5613C17.0094 26.7146 17.1122 26.9098 17.1536 27.1222C17.1951 27.3346 17.1734 27.5548 17.0913 27.7547C17.0091 27.9547 16.8702 28.1254 16.6922 28.2454C16.5141 28.3654 16.3049 28.4293 16.091 28.4289C15.9491 28.4289 15.8086 28.4005 15.6776 28.3455C15.5465 28.2905 15.4275 28.2098 15.3273 28.1082C15.227 28.0065 15.1476 27.8859 15.0935 27.7531C15.0394 27.6203 15.0117 27.4781 15.012 27.3344Z" fill="black"/>
<path d="M26.0397 27.3344C26.0397 27.1179 26.1031 26.9062 26.222 26.7262C26.3409 26.5461 26.5099 26.4059 26.7075 26.3231C26.9052 26.2403 27.1227 26.2188 27.3325 26.2612C27.5422 26.3036 27.7349 26.408 27.886 26.5613C28.0371 26.7146 28.1399 26.9098 28.1814 27.1222C28.2228 27.3346 28.2011 27.5548 28.119 27.7547C28.0368 27.9547 27.8979 28.1254 27.7199 28.2454C27.5418 28.3654 27.3326 28.4293 27.1187 28.4289C26.9768 28.4289 26.8363 28.4005 26.7053 28.3455C26.5742 28.2905 26.4552 28.2098 26.355 28.1082C26.2548 28.0065 26.1753 27.8859 26.1212 27.7531C26.0671 27.6203 26.0394 27.4781 26.0397 27.3344Z" fill="black"/>
<path d="M30.2567 38.9753C35.0343 34.1388 35.0343 26.2973 30.2567 21.4607C25.4792 16.6242 17.7332 16.6242 12.9556 21.4607C8.17805 26.2972 8.17804 34.1388 12.9556 38.9753C17.7332 43.8118 25.4792 43.8118 30.2567 38.9753Z" stroke="black" stroke-width="1.32753" stroke-linecap="round" stroke-linejoin="round"/>
<path d="M28.183 32.29C27.7462 33.7101 26.8724 34.9517 25.6891 35.8333C24.5058 36.715 23.075 37.1905 21.6058 37.1905C20.1365 37.1905 18.7058 36.715 17.5225 35.8333C16.3392 34.9517 15.4653 33.7101 15.0286 32.29H28.183Z" stroke="black" stroke-width="1.32753" stroke-linecap="round" stroke-linejoin="round"/>
</svg>
