<svg width="43" height="61" viewBox="0 0 43 61" fill="none" xmlns="http://www.w3.org/2000/svg">
<rect x="0.986092" y="1.45295" width="40.1932" height="58.4112" rx="4.42509" fill="#FFB6A6" stroke="black" stroke-width="1.77003"/>
<path d="M11.9958 40.1151C7.21828 35.2786 7.21827 27.437 11.9958 22.6005C16.7734 17.764 24.5194 17.764 29.297 22.6005C34.0745 27.437 34.0745 35.2785 29.297 40.1151C24.5194 44.9516 16.7734 44.9516 11.9958 40.1151Z" stroke="black" stroke-width="1.32753" stroke-linecap="round" stroke-linejoin="round"/>
<path d="M27.2397 28.4751C27.2397 28.2585 27.1763 28.0468 27.0574 27.8668C26.9385 27.6868 26.7695 27.5465 26.5719 27.4637C26.3742 27.381 26.1567 27.3594 25.947 27.4018C25.7372 27.4442 25.5446 27.5486 25.3935 27.7019C25.2423 27.8552 25.1395 28.0504 25.0981 28.2628C25.0566 28.4753 25.0783 28.6954 25.1604 28.8953C25.2426 29.0953 25.3815 29.2661 25.5595 29.3861C25.7376 29.5061 25.9468 29.5699 26.1607 29.5695C26.3026 29.5695 26.4431 29.5412 26.5741 29.4861C26.7052 29.4311 26.8242 29.3505 26.9244 29.2488C27.0247 29.1472 27.1041 29.0265 27.1582 28.8937C27.2123 28.7609 27.24 28.6187 27.2397 28.4751Z" fill="black"/>
<path d="M16.2119 28.4751C16.2119 28.2585 16.1485 28.0468 16.0296 27.8668C15.9107 27.6868 15.7417 27.5465 15.544 27.4637C15.3464 27.381 15.1289 27.3594 14.9191 27.4018C14.7094 27.4442 14.5167 27.5486 14.3656 27.7019C14.2145 27.8552 14.1117 28.0504 14.0702 28.2628C14.0287 28.4753 14.0505 28.6954 14.1326 28.8953C14.2147 29.0953 14.3536 29.2661 14.5317 29.3861C14.7098 29.5061 14.919 29.5699 15.1329 29.5695C15.2748 29.5695 15.4152 29.5412 15.5463 29.4861C15.6773 29.4311 15.7964 29.3505 15.8966 29.2488C15.9968 29.1472 16.0763 29.0265 16.1304 28.8937C16.1845 28.7609 16.2122 28.6187 16.2119 28.4751Z" fill="black"/>
<path d="M26.571 36.425C26.0704 35.2552 25.2427 34.2591 24.1899 33.5593C23.1371 32.8596 21.9052 32.4868 20.6458 32.4868C19.3864 32.4868 18.1545 32.8596 17.1017 33.5593C16.0489 34.2591 15.2213 35.2552 14.7206 36.425" stroke="black" stroke-width="1.32753" stroke-linecap="round" stroke-linejoin="round"/>
</svg>
