<svg width="44" height="61" viewBox="0 0 44 61" fill="none" xmlns="http://www.w3.org/2000/svg">
<rect x="1.86341" y="1.45295" width="41.0674" height="58.4112" rx="4.42509" fill="#00FFFF" stroke="black" stroke-width="1.77003"/>
<path d="M34.3004 33.0599C35.8524 26.4029 31.7798 19.7327 25.204 18.1615C18.6282 16.5903 12.0393 20.7132 10.4872 27.3701C8.93518 34.0271 13.0078 40.6973 19.5836 42.2685C26.1594 43.8396 32.7484 39.7168 34.3004 33.0599Z" stroke="black" stroke-width="1.32753" stroke-linecap="round" stroke-linejoin="round"/>
<path d="M15.8033 27.3344C15.8033 27.118 15.8667 26.9064 15.9855 26.7264C16.1043 26.5464 16.2732 26.4061 16.4707 26.3233C16.6683 26.2405 16.8856 26.2188 17.0954 26.261C17.3051 26.3032 17.4977 26.4075 17.6489 26.5605C17.8001 26.7136 17.9031 26.9086 17.9448 27.1209C17.9865 27.3332 17.9651 27.5533 17.8833 27.7533C17.8014 27.9532 17.6629 28.1242 17.4851 28.2444C17.3073 28.3647 17.0983 28.4289 16.8844 28.4289C16.5977 28.4289 16.3227 28.3136 16.12 28.1083C15.9172 27.9031 15.8033 27.6247 15.8033 27.3344Z" fill="black"/>
<path d="M26.8309 27.3344C26.8309 27.118 26.8943 26.9064 27.0131 26.7264C27.1319 26.5464 27.3008 26.4061 27.4983 26.3233C27.6959 26.2405 27.9132 26.2188 28.1229 26.261C28.3327 26.3032 28.5253 26.4075 28.6765 26.5605C28.8277 26.7136 28.9306 26.9086 28.9724 27.1209C29.0141 27.3332 28.9927 27.5533 28.9108 27.7533C28.829 27.9532 28.6904 28.1242 28.5127 28.2444C28.3349 28.3647 28.1259 28.4289 27.912 28.4289C27.6253 28.4289 27.3503 28.3136 27.1476 28.1083C26.9448 27.9031 26.8309 27.6247 26.8309 27.3344Z" fill="black"/>
<path d="M28.9765 32.29C28.5391 33.7098 27.6649 34.951 26.4815 35.8323C25.298 36.7136 23.8674 37.1889 22.3982 37.1889C20.9291 37.1889 19.4984 36.7136 18.3149 35.8323C17.1315 34.951 16.2573 33.7098 15.8199 32.29" stroke="black" stroke-width="1.32753" stroke-linecap="round" stroke-linejoin="round"/>
<path d="M16.3429 31.9842L15.0889 32.5936" stroke="black" stroke-width="1.32753" stroke-linecap="round" stroke-linejoin="round"/>
<path d="M28.4536 31.9842L29.7076 32.5936" stroke="black" stroke-width="1.32753" stroke-linecap="round" stroke-linejoin="round"/>
</svg>
