<svg width="43" height="61" viewBox="0 0 43 61" fill="none" xmlns="http://www.w3.org/2000/svg">
<rect x="1.5293" y="1.45295" width="40.1932" height="58.4112" rx="4.42509" fill="#FFF731" stroke="black" stroke-width="1.77003"/>
<path d="M14.5928 27.3345C14.5924 27.1179 14.6554 26.9061 14.774 26.7259C14.8925 26.5456 15.0612 26.405 15.2587 26.3218C15.4562 26.2387 15.6737 26.2167 15.8835 26.2587C16.0934 26.3007 16.2862 26.4048 16.4376 26.5577C16.589 26.7107 16.6922 26.9057 16.7341 27.1181C16.7759 27.3304 16.7546 27.5506 16.6729 27.7507C16.5911 27.9508 16.4526 28.1218 16.2747 28.2422C16.0969 28.3626 15.8878 28.4268 15.6739 28.4268C15.3875 28.4268 15.1128 28.3118 14.9102 28.107C14.7075 27.9022 14.5933 27.6244 14.5928 27.3345Z" fill="black"/>
<path d="M25.6328 27.3345C25.6324 27.1179 25.6954 26.9061 25.814 26.7259C25.9325 26.5456 26.1012 26.405 26.2987 26.3218C26.4963 26.2387 26.7137 26.2167 26.9236 26.2587C27.1334 26.3007 27.3262 26.4048 27.4776 26.5577C27.629 26.7107 27.7322 26.9057 27.7741 27.1181C27.816 27.3304 27.7947 27.5506 27.7129 27.7507C27.6311 27.9508 27.4926 28.1218 27.3148 28.2422C27.1369 28.3626 26.9278 28.4268 26.7139 28.4268C26.4275 28.4268 26.1529 28.3118 25.9502 28.107C25.7475 27.9022 25.6334 27.6244 25.6328 27.3345Z" fill="black"/>
<path d="M21.1898 42.6017C27.9463 42.6017 33.4235 37.0569 33.4235 30.217C33.4235 23.3772 27.9463 17.8324 21.1898 17.8324C14.4333 17.8324 8.95605 23.3772 8.95605 30.217C8.95605 37.0569 14.4333 42.6017 21.1898 42.6017Z" stroke="black" stroke-width="1.32753" stroke-linecap="round" stroke-linejoin="round"/>
<path d="M14.874 33.5974H27.5056" stroke="black" stroke-width="1.32753" stroke-linecap="round" stroke-linejoin="round"/>
</svg>
