<svg width="300" height="45" viewBox="0 0 300 45" fill="none" xmlns="http://www.w3.org/2000/svg">
<rect width="300" height="45" rx="6" fill="#FEE500"/>
<g clip-path="url(#clip0_1_96)">
<path opacity="0.902" fill-rule="evenodd" clip-rule="evenodd" d="M106 14.444C101.29 14.444 97 18.23 97 21.433C97 23.833 98.558 25.95 100.931 27.208L99.933 30.874C99.844 31.199 100.213 31.457 100.496 31.27L104.873 28.365C105.242 28.401 105.618 28.422 106 28.422C110.97 28.422 115 25.293 115 21.433C115 18.23 110.97 14.444 106 14.444Z" fill="black"/>
</g>
<path d="M130.149 17.647C130.11 19.851 129.593 21.6828 128.597 23.1425C127.601 24.5925 126.19 25.7573 124.363 26.637L123.682 25.8105C125.857 24.8728 127.384 23.4712 128.264 21.6055L123.986 21.9825L123.754 20.982L128.612 20.692C128.824 20.0057 128.95 19.2952 128.989 18.5605H124.291V17.647H130.149ZM133.295 16.342V21.533H135.369V22.4755H133.295V29.015H132.193V16.342H133.295ZM142.694 17.647C142.656 19.851 142.139 21.6828 141.143 23.1425C140.147 24.5925 138.736 25.7573 136.909 26.637L136.227 25.8105C138.402 24.8728 139.93 23.4712 140.809 21.6055L136.532 21.9825L136.3 20.982L141.157 20.692C141.37 20.0057 141.496 19.2952 141.534 18.5605H136.836V17.647H142.694ZM145.841 16.342V21.533H147.914V22.4755H145.841V29.015H144.739V16.342H145.841ZM158.923 20.5905C158.923 21.5572 158.556 22.3498 157.821 22.9685C157.096 23.5872 156.12 23.9352 154.892 24.0125V26.4195H160.083V27.3475H148.643V26.4195H153.79V24.0125C152.572 23.9255 151.601 23.5775 150.876 22.9685C150.151 22.3498 149.788 21.5572 149.788 20.5905C149.788 19.5465 150.204 18.7103 151.035 18.082C151.876 17.4537 152.978 17.1395 154.341 17.1395C155.724 17.1395 156.83 17.4537 157.662 18.082C158.503 18.7103 158.923 19.5465 158.923 20.5905ZM156.893 22.4465C157.541 21.9825 157.865 21.3687 157.865 20.605C157.865 19.8413 157.546 19.2275 156.908 18.7635C156.27 18.2995 155.414 18.0675 154.341 18.0675C153.288 18.0675 152.442 18.2995 151.804 18.7635C151.175 19.2275 150.861 19.8413 150.861 20.605C150.861 21.3687 151.175 21.9825 151.804 22.4465C152.442 22.9008 153.288 23.128 154.341 23.128C155.405 23.128 156.255 22.9008 156.893 22.4465ZM176.438 27.4055H164.998V26.4775H170.145V24.317H166.404V20.3585H173.915V18.3285H166.39V17.4005H175.017V21.272H167.506V23.389H175.38V24.317H171.247V26.4775H176.438V27.4055ZM188.984 27.1445H177.544V26.2165H188.984V27.1445ZM187.346 17.763C187.346 20.8853 187.157 23.3842 186.78 25.2595L185.678 25.1145C186.036 23.4615 186.215 21.3155 186.215 18.6765H178.733V17.763H187.346ZM200.443 25.593H199.341V16.342H200.443V25.593ZM200.762 28.5945H192.178V24.6795H193.28V27.681H200.762V28.5945ZM193.773 17.183C194.749 17.183 195.561 17.4778 196.209 18.0675C196.866 18.6572 197.195 19.416 197.195 20.344C197.195 21.272 196.871 22.0308 196.223 22.6205C195.575 23.2005 194.763 23.4905 193.787 23.4905C192.811 23.4905 191.994 23.2005 191.337 22.6205C190.689 22.0405 190.365 21.2865 190.365 20.3585C190.365 19.4305 190.689 18.6717 191.337 18.082C191.994 17.4827 192.806 17.183 193.773 17.183ZM193.773 18.14C193.096 18.14 192.535 18.3478 192.091 18.7635C191.646 19.1792 191.424 19.706 191.424 20.344C191.424 20.9723 191.646 21.4943 192.091 21.91C192.545 22.316 193.11 22.519 193.787 22.519C194.483 22.519 195.049 22.316 195.484 21.91C195.928 21.504 196.151 20.9868 196.151 20.3585C196.151 19.7012 195.928 19.1695 195.484 18.7635C195.049 18.3478 194.478 18.14 193.773 18.14Z" fill="black"/>
<defs>
<clipPath id="clip0_1_96">
<rect width="18" height="18" fill="white" transform="translate(97 13.5)"/>
</clipPath>
</defs>
</svg>
